<?xml version="1.0" standalone="no"?>
<!DOCTYPE svg PUBLIC "-//W3C//DTD SVG 20010904//EN"
 "http://www.w3.org/TR/2001/REC-SVG-20010904/DTD/svg10.dtd">
<svg version="1.0" xmlns="http://www.w3.org/2000/svg"
 width="863.000000pt" height="966.000000pt" viewBox="0 0 863.000000 966.000000"
 preserveAspectRatio="xMidYMid meet">

<g transform="translate(0.000000,966.000000) scale(0.100000,-0.100000)"
fill="#000000" stroke="none">
<path d="M4670 9625 c-8 -2 -73 -11 -145 -20 -144 -18 -368 -62 -539 -104 -93
-24 -155 -50 -386 -163 -306 -150 -294 -146 -475 -183 -71 -15 -179 -45 -240
-67 -102 -37 -322 -144 -412 -201 -21 -13 -67 -42 -103 -64 l-65 -41 -340 -6
c-361 -6 -515 -23 -705 -76 -159 -45 -530 -285 -815 -529 -89 -76 -298 -233
-411 -309 -51 -34 -46 -64 19 -127 48 -47 151 -119 220 -155 16 -8 33 -23 39
-35 16 -29 50 -70 127 -150 62 -65 138 -183 215 -334 15 -30 85 -160 155 -290
71 -130 159 -294 196 -366 107 -204 140 -261 213 -359 38 -50 134 -179 215
-287 114 -153 190 -241 348 -405 112 -115 235 -243 275 -284 40 -41 114 -126
164 -188 77 -95 101 -133 151 -245 64 -142 115 -226 156 -252 33 -22 80 -4 90
34 11 47 50 114 136 236 79 111 88 128 126 250 22 71 48 162 57 200 9 39 20
73 23 77 4 5 27 -22 51 -59 46 -70 172 -201 237 -246 71 -49 467 -138 894
-201 103 -15 150 -35 330 -139 52 -30 117 -66 144 -82 140 -77 200 -118 310
-210 66 -55 127 -107 135 -115 9 -8 66 -59 128 -113 62 -54 112 -103 112 -109
0 -6 12 -8 31 -4 16 3 36 1 42 -5 7 -5 32 -28 57 -50 153 -137 338 -255 435
-279 45 -11 59 -10 144 13 62 17 98 32 105 44 5 10 33 40 63 67 29 27 53 55
53 62 0 8 8 14 18 14 11 0 37 28 69 78 66 100 94 156 99 201 10 84 26 189 35
225 l11 39 111 -6 c90 -5 114 -10 122 -24 6 -9 39 -49 75 -88 36 -39 78 -99
94 -133 16 -34 35 -62 42 -62 6 0 14 -8 17 -17 3 -10 18 -49 32 -88 94 -253
113 -339 130 -595 14 -208 -43 -639 -101 -768 -13 -29 -24 -56 -24 -59 0 -11
-117 -264 -149 -323 -17 -30 -35 -64 -40 -75 -22 -48 -140 -217 -209 -298 -94
-112 -196 -196 -303 -254 -201 -108 -492 -283 -504 -303 -15 -24 -250 -128
-404 -179 -260 -85 -293 -91 -529 -91 l-194 0 -91 47 c-218 111 -327 203 -366
308 -25 66 -26 113 -6 181 l14 50 94 27 c161 49 228 104 261 218 39 129 29
232 -31 337 -29 48 -42 57 -108 72 -40 9 -61 7 -126 -10 -95 -24 -135 -26
-143 -4 -12 31 -6 65 17 95 22 31 22 31 92 24 61 -5 77 -3 121 17 81 38 154
89 169 119 29 55 9 195 -33 237 -12 12 -45 36 -72 53 -28 17 -54 37 -58 45
-18 32 -119 49 -302 49 l-175 0 -150 -75 c-226 -112 -367 -203 -394 -254 -7
-13 -39 -50 -70 -83 -53 -56 -116 -159 -149 -243 -26 -64 -82 -264 -82 -290 0
-14 -7 -62 -15 -108 -8 -46 -18 -138 -21 -205 -8 -140 14 -279 67 -441 109
-330 343 -600 740 -855 101 -64 181 -96 434 -171 77 -23 174 -53 215 -66 73
-24 80 -24 477 -24 571 0 882 29 965 90 15 11 31 20 36 20 102 0 843 389 1045
549 118 93 491 470 571 576 37 49 131 156 208 238 78 82 161 180 184 217 96
156 215 386 303 585 10 22 25 58 35 79 31 70 113 298 141 391 15 50 33 109 41
133 14 46 39 195 74 447 11 83 26 183 32 223 7 44 8 111 4 175 -4 56 -11 278
-16 492 -9 440 -14 474 -107 795 -25 85 -49 171 -53 190 -4 19 -23 64 -42 100
-108 202 -355 827 -413 1045 -7 28 -19 64 -25 80 -7 17 -18 50 -24 75 -7 25
-33 115 -59 200 -25 85 -57 209 -71 275 -93 439 -87 414 -151 630 -38 128
-128 349 -173 427 -65 114 -381 528 -403 528 -4 0 -18 11 -31 24 -13 14 -106
69 -208 124 -282 151 -296 159 -421 238 -100 63 -134 92 -226 192 -201 218
-201 218 -393 315 -184 92 -221 105 -457 148 -97 18 -163 23 -368 25 -137 1
-257 1 -265 -1z m490 -160 c47 -7 111 -19 143 -24 32 -6 102 -26 155 -46 289
-108 448 -218 509 -351 13 -30 31 -54 39 -54 8 0 14 -4 14 -9 0 -5 20 -34 45
-64 25 -31 45 -58 45 -61 0 -3 -36 -24 -80 -47 -90 -46 -157 -111 -121 -117
11 -2 48 8 83 21 100 40 133 48 187 49 45 0 56 -5 108 -47 32 -26 68 -52 81
-58 12 -6 22 -18 22 -27 0 -17 -206 -174 -418 -317 -46 -31 -72 -59 -72 -77 0
-26 152 31 267 100 80 48 223 154 280 207 26 25 36 28 65 22 36 -8 172 -77
201 -102 21 -20 22 -63 2 -130 -17 -57 -49 -90 -139 -144 -30 -19 -56 -39 -56
-46 0 -6 -57 -41 -126 -77 -172 -90 -267 -149 -342 -215 -60 -51 -119 -127
-108 -138 13 -14 221 74 347 147 152 88 380 262 484 369 21 23 42 41 45 41 4
0 32 -24 62 -52 37 -36 60 -69 73 -103 10 -27 26 -70 36 -93 l19 -44 -26 -33
c-44 -58 -143 -138 -294 -238 -308 -204 -310 -206 -310 -232 0 -14 1 -25 3
-25 29 0 375 169 461 225 117 76 192 142 235 208 l44 67 36 -27 c51 -39 68
-60 97 -122 47 -98 30 -193 -48 -268 -30 -29 -59 -44 -218 -115 -25 -11 -67
-31 -95 -43 -140 -65 -418 -185 -477 -206 -47 -17 -68 -29 -68 -41 0 -9 -3
-24 -7 -34 -6 -15 -1 -16 43 -9 134 20 469 138 714 253 154 72 230 103 239 98
4 -3 16 -34 26 -68 18 -64 16 -159 -5 -212 -13 -35 -152 -123 -342 -217 -90
-44 -171 -84 -180 -89 -10 -6 -64 -30 -120 -56 -112 -50 -138 -68 -138 -95 0
-16 4 -16 83 1 169 37 253 69 538 207 189 91 200 91 236 -1 26 -65 39 -156 29
-210 -14 -76 -124 -158 -361 -270 -159 -75 -168 -81 -140 -102 40 -31 118 -11
385 100 74 31 149 56 167 56 28 0 33 -4 47 -47 34 -98 11 -193 -59 -251 -46
-37 -133 -80 -264 -129 -53 -20 -102 -41 -109 -46 -24 -18 5 -29 75 -30 80 0
152 19 326 85 l128 49 27 -20 c15 -11 49 -42 76 -69 46 -47 48 -52 41 -88 -18
-99 -75 -154 -195 -190 -245 -72 -296 -92 -279 -108 14 -14 144 -18 216 -6 43
6 133 32 201 56 70 26 131 42 142 39 10 -3 29 -27 42 -53 20 -39 23 -60 21
-122 -1 -41 -3 -83 -3 -93 0 -11 -14 -24 -37 -33 -21 -8 -47 -19 -58 -24 -86
-41 -252 -110 -262 -110 -29 0 -11 -30 25 -39 54 -16 51 -16 242 44 95 31 183
55 194 53 26 -4 82 -78 96 -126 5 -20 10 -67 10 -105 0 -67 0 -67 -37 -93 -21
-14 -74 -46 -118 -71 -166 -95 -178 -104 -161 -121 14 -14 23 -14 93 2 43 11
124 38 180 62 57 24 111 44 121 44 29 0 49 -29 66 -96 16 -63 22 -231 8 -249
-10 -15 -68 -55 -137 -96 -90 -54 -262 -149 -269 -149 -4 0 -18 -7 -32 -16
-19 -13 -22 -20 -13 -30 25 -31 117 -13 291 57 122 49 147 50 198 3 67 -62 84
-122 58 -207 -11 -37 -24 -48 -140 -124 -149 -97 -220 -138 -338 -195 -102
-49 -96 -44 -80 -63 32 -39 158 -7 381 95 l128 58 7 -35 c10 -54 -3 -192 -22
-245 -17 -45 -19 -47 -113 -84 -53 -21 -141 -52 -195 -69 -55 -17 -101 -36
-103 -42 -3 -7 9 -19 26 -28 45 -23 147 -17 276 15 61 16 113 25 117 21 7 -7
-5 -237 -13 -246 -10 -9 -193 -46 -308 -62 -63 -8 -123 -18 -135 -23 -19 -7
-15 -11 28 -30 44 -20 65 -22 192 -22 91 1 146 -2 150 -9 3 -6 3 -54 -1 -106
-5 -69 -12 -100 -24 -112 -24 -24 -131 -57 -289 -89 -73 -15 -134 -31 -134
-37 -1 -5 16 -19 38 -30 34 -18 58 -20 197 -19 86 0 157 -1 157 -4 0 -2 -11
-31 -24 -65 -13 -34 -33 -86 -43 -114 -16 -50 -20 -53 -51 -53 -28 0 -33 -4
-38 -30 -5 -25 -10 -28 -33 -25 -192 33 -361 46 -361 27 0 -15 40 -52 78 -70
50 -25 144 -50 214 -57 l57 -6 -6 -32 c-3 -18 -21 -65 -39 -106 l-34 -74 -35
6 c-26 4 -38 2 -42 -9 -4 -12 -41 -14 -215 -14 -163 0 -209 -3 -206 -12 8 -23
120 -60 247 -82 142 -25 154 -35 128 -98 -19 -45 -64 -79 -154 -118 -63 -26
-83 -30 -165 -30 -51 1 -129 7 -173 15 -148 28 -165 29 -165 14 0 -8 29 -35
63 -60 62 -46 147 -75 278 -94 74 -11 79 -19 39 -60 -19 -20 -77 -68 -127
-107 -51 -38 -93 -76 -93 -83 0 -16 -32 -25 -90 -25 -51 0 -180 48 -180 68 0
17 -15 15 -30 -3 -18 -21 5 -69 60 -129 l41 -44 -38 -31 c-50 -41 -134 -81
-172 -81 -25 0 -37 9 -72 56 -23 31 -50 59 -60 61 -11 3 -22 16 -25 29 -11 43
-34 29 -34 -20 0 -32 11 -65 40 -120 22 -41 40 -80 40 -85 0 -15 -196 -149
-258 -177 -29 -13 -61 -24 -72 -24 -11 0 -52 33 -95 78 l-76 77 7 -55 c8 -65
32 -124 68 -167 15 -18 26 -41 24 -50 -4 -19 -104 -72 -255 -134 l-93 -38 0
25 c0 17 -11 31 -39 48 -43 28 -70 67 -96 142 -18 52 -41 91 -49 83 -3 -2 -9
-38 -13 -79 -9 -74 -8 -76 25 -140 19 -36 39 -69 43 -74 21 -24 4 -35 -78 -55
-49 -11 -131 -31 -184 -44 l-96 -23 -63 107 c-80 136 -95 145 -87 52 4 -38 16
-93 26 -123 11 -30 18 -56 17 -58 -11 -11 -212 -37 -363 -48 l-103 -7 -19 44
c-11 24 -25 72 -32 106 -7 35 -16 63 -20 63 -4 0 -14 3 -22 6 -31 12 -45 -133
-18 -184 6 -11 11 -23 11 -25 0 -15 -76 -27 -166 -27 l-104 0 -24 38 c-14 20
-36 77 -50 125 -14 49 -30 96 -35 105 -8 15 -11 14 -19 -8 -5 -14 -15 -50 -22
-81 -11 -47 -10 -64 4 -111 9 -31 16 -59 16 -62 0 -11 -205 -6 -255 7 -37 10
-53 20 -63 39 -22 47 -34 141 -30 235 5 93 0 113 -32 113 -28 0 -62 -139 -58
-238 l3 -84 -67 5 c-80 7 -137 34 -175 84 l-28 37 2 160 c2 155 -1 175 -29
176 -8 0 -49 -127 -69 -212 -8 -32 -17 -58 -21 -58 -18 0 -119 114 -138 154
-32 71 -27 101 43 237 60 120 71 159 42 159 -20 0 -104 -97 -155 -178 -25 -40
-49 -71 -54 -69 -24 8 -123 202 -137 267 -17 81 -11 90 107 160 58 34 108 70
112 79 3 9 11 21 17 26 7 6 15 18 18 28 5 12 1 17 -14 17 -39 0 -141 -41 -209
-85 -39 -25 -74 -45 -79 -45 -11 0 -17 25 -31 125 -13 92 -12 95 4 95 8 0 32
18 53 40 41 42 118 70 195 70 31 0 39 4 44 24 13 54 5 61 -76 60 -56 -1 -90
-8 -135 -27 -33 -14 -64 -23 -68 -20 -10 6 -1 83 15 130 10 28 20 34 121 69
103 35 114 37 169 28 67 -12 83 -6 75 28 -13 49 -149 83 -234 59 -18 -5 -35
-6 -37 -2 -9 13 70 146 94 158 15 8 67 13 131 13 86 0 115 -4 153 -21 26 -11
51 -19 57 -17 15 5 -33 89 -63 111 -15 11 -51 22 -85 26 -50 5 -58 9 -61 28
-2 16 2 23 13 23 8 0 20 11 25 24 10 26 42 52 109 86 49 25 89 22 154 -11 21
-11 44 -18 50 -16 16 5 9 100 -9 110 -25 14 -15 26 59 67 100 55 165 53 221
-9 26 -29 44 -26 52 7 12 55 10 54 71 47 90 -11 123 -42 123 -116 0 -26 -6
-33 -47 -52 -41 -19 -65 -22 -173 -22 -145 0 -161 -6 -247 -98 -74 -78 -117
-171 -148 -321 -8 -38 -32 -104 -54 -145 -191 -367 -121 -654 224 -911 146
-110 275 -176 386 -200 51 -11 121 -27 154 -35 67 -17 352 -19 555 -4 240 18
560 105 879 239 231 96 456 220 673 370 96 67 116 82 277 216 322 268 646 726
695 981 3 11 9 38 15 59 15 52 48 296 56 409 6 94 -6 274 -31 435 -31 208 -43
246 -209 640 -162 384 -175 420 -144 420 5 0 38 18 73 40 36 21 88 51 115 65
28 14 51 32 51 40 0 8 17 22 37 30 71 30 113 85 138 181 12 47 13 70 5 111 -6
28 -18 54 -26 57 -7 3 -14 12 -14 20 0 34 -74 46 -338 56 -224 8 -447 19 -722
34 -42 3 -88 10 -103 15 -49 19 -248 51 -313 51 -34 0 -91 -9 -127 -20 -106
-33 -189 -127 -252 -285 -28 -69 1 -249 58 -370 36 -74 46 -117 48 -195 3
-116 47 -284 86 -331 31 -37 89 -38 131 -4 2 2 -4 26 -14 55 -13 41 -16 74
-11 163 5 101 25 209 42 225 12 12 80 -35 83 -57 4 -27 -45 -333 -62 -383 -43
-129 -159 -172 -298 -109 -34 15 -103 56 -152 89 -79 54 -95 70 -145 149 -54
85 -114 173 -213 312 -26 36 -101 147 -167 246 -126 187 -138 195 -106 72 8
-31 28 -86 44 -122 16 -35 26 -67 22 -70 -5 -2 -66 20 -137 51 -287 124 -380
157 -544 194 -32 7 -146 37 -345 92 -97 27 -237 90 -365 166 -205 121 -308
271 -356 514 -43 222 -56 258 -94 258 -28 0 -34 -35 -26 -148 14 -189 49 -304
127 -419 18 -26 84 -101 147 -165 64 -65 113 -121 109 -124 -10 -10 -184 34
-232 58 -114 57 -259 257 -319 440 -20 65 -22 83 -16 163 9 103 38 188 66 193
11 2 22 7 26 11 4 3 19 105 32 226 18 162 32 239 51 292 22 64 25 88 24 195 0
68 -6 148 -12 178 -10 48 -15 55 -37 58 -22 2 -29 -7 -64 -80 -21 -46 -98
-204 -171 -353 -73 -148 -148 -304 -166 -345 l-34 -75 -6 -345 c-5 -300 -8
-358 -27 -445 -33 -156 -75 -262 -144 -362 -23 -34 -35 -43 -58 -43 -19 0 -30
5 -30 14 0 8 -24 35 -54 60 -45 39 -64 67 -117 172 -34 69 -76 147 -93 173
-16 25 -50 78 -75 116 -31 49 -140 165 -361 385 -278 278 -321 325 -364 400
-64 111 -163 311 -216 434 -23 54 -46 106 -51 115 -5 9 -43 92 -84 185 -84
191 -162 337 -203 381 -15 17 -52 59 -81 95 -88 107 -264 299 -360 394 -50 49
-91 91 -91 95 1 27 134 106 312 184 32 14 153 90 270 168 472 317 482 323 608
369 167 60 431 78 600 41 252 -56 520 -173 785 -341 33 -21 72 -42 88 -45 26
-7 27 -5 27 29 0 49 -23 92 -60 111 -55 28 -230 176 -276 233 -26 31 -52 61
-60 65 -9 5 -14 25 -14 55 l0 47 77 40 c42 22 117 64 167 94 71 42 147 72 351
141 213 73 302 109 495 203 369 180 523 238 760 288 123 25 154 28 350 28 144
1 243 -4 300 -14z m1180 -4459 c230 -39 375 -58 515 -66 161 -10 494 -3 598
11 57 8 82 8 89 1 31 -31 -63 -184 -146 -242 -161 -110 -431 -172 -826 -190
-217 -9 -268 -6 -403 25 -34 8 -78 17 -97 20 -19 3 -55 18 -79 32 -59 34 -83
89 -89 209 l-5 90 55 59 c45 49 61 59 99 65 80 13 142 10 289 -14z m829 -638
c103 -233 170 -393 207 -493 25 -66 49 -129 54 -140 74 -160 107 -399 97 -699
-9 -268 -24 -343 -106 -549 -86 -215 -221 -417 -447 -667 -176 -195 -210 -225
-413 -364 -273 -187 -562 -345 -801 -439 -273 -107 -551 -180 -380 -100 36 17
94 41 130 53 36 13 90 34 120 48 87 39 414 219 675 371 17 10 59 37 95 59 36
23 81 50 100 61 49 27 106 85 250 251 68 80 127 147 131 150 11 9 159 209 159
215 0 4 13 26 29 49 85 123 186 376 206 515 45 318 21 706 -63 1006 -39 138
-151 416 -201 495 -28 44 -81 142 -81 149 0 17 145 70 193 70 23 1 31 -6 46
-41z m-3188 -2338 c24 -32 103 -73 175 -91 45 -12 46 -11 82 23 72 68 124 86
166 55 44 -32 35 -148 -18 -227 -26 -40 -83 -66 -162 -76 -20 -2 -41 -7 -45
-10 -5 -3 -9 -1 -9 4 0 12 -98 55 -164 72 -64 17 -122 72 -131 123 -6 31 -2
49 21 97 33 67 53 74 85 30z m-121 -287 c25 -27 63 -57 84 -68 47 -24 57 -44
26 -52 -43 -11 -52 -105 -25 -254 22 -114 42 -176 78 -229 107 -159 282 -247
597 -300 85 -14 100 -19 100 -32 0 -16 -155 -4 -250 21 -155 40 -304 96 -332
125 -8 7 -52 41 -100 74 -99 71 -201 172 -240 240 -61 104 -78 250 -44 382 33
129 37 140 49 140 6 0 32 -21 57 -47z"/>
<path d="M1719 8325 c-64 -7 -127 -16 -140 -20 -99 -30 -250 -112 -579 -316
-52 -32 -132 -75 -177 -96 -59 -26 -83 -42 -83 -55 0 -10 -7 -18 -17 -18 -10
-1 -29 -7 -43 -15 -23 -12 -23 -14 -7 -21 11 -4 58 -4 105 -1 121 8 347 84
596 201 53 25 110 46 127 46 16 0 95 9 177 21 245 35 526 17 682 -43 99 -39
243 -141 290 -208 l20 -28 -21 -204 c-14 -138 -19 -236 -16 -308 5 -97 22
-180 36 -180 17 1 30 21 49 80 106 338 137 448 157 562 23 131 20 169 -16 209
-16 19 -38 45 -47 58 -9 14 -59 60 -111 103 -252 208 -553 280 -982 233z"/>
<path d="M4233 7167 c-42 -85 -78 -209 -102 -352 -29 -172 -31 -235 -8 -235
13 0 19 16 73 205 67 234 103 445 76 445 -5 0 -23 -28 -39 -63z"/>
<path d="M4748 6966 c-99 -80 -210 -231 -299 -407 -32 -62 -34 -69 -19 -69 20
0 60 53 144 194 47 77 106 161 132 186 25 25 61 60 80 78 32 32 45 62 25 62
-5 0 -33 -20 -63 -44z"/>
<path d="M5770 6961 c-39 -8 -140 -45 -167 -61 -10 -6 -69 -21 -132 -33 -64
-12 -116 -27 -119 -34 -2 -7 8 -24 22 -38 31 -30 79 -33 204 -9 46 8 86 14 88
11 3 -2 7 -28 11 -56 5 -44 11 -56 41 -79 28 -21 48 -27 102 -30 66 -4 68 -3
109 34 24 21 45 33 50 28 28 -30 208 -405 324 -674 52 -119 74 -148 97 -123
11 13 -27 187 -85 388 -28 94 -103 283 -146 366 -29 55 -67 104 -142 181 -56
58 -111 110 -122 116 -30 15 -96 21 -135 13z m99 -147 c57 -47 35 -67 -43 -40
-35 12 -53 31 -55 59 -2 19 69 5 98 -19z"/>
<path d="M4323 6742 c-64 -116 -108 -298 -88 -362 6 -17 35 -30 35 -15 0 3 18
77 39 163 35 137 61 253 61 267 0 19 -20 -4 -47 -53z"/>
<path d="M5425 5521 c-74 -18 -105 -52 -152 -167 -51 -125 -53 -157 -14 -241
28 -60 76 -130 135 -200 17 -20 66 -33 66 -17 0 3 -9 26 -21 52 -11 26 -26 61
-34 77 -7 17 -23 58 -35 93 -21 56 -22 69 -11 114 18 78 81 197 114 215 23 12
28 20 25 46 -3 35 -19 41 -73 28z"/>
</g>
</svg>
