<?xml version="1.0" standalone="no"?>
<!DOCTYPE svg PUBLIC "-//W3C//DTD SVG 20010904//EN"
 "http://www.w3.org/TR/2001/REC-SVG-20010904/DTD/svg10.dtd">
<svg version="1.0" xmlns="http://www.w3.org/2000/svg"
 width="416.000000pt" height="690.000000pt" viewBox="0 0 416.000000 690.000000"
 preserveAspectRatio="xMidYMid meet">
<metadata>
Created by potrace 1.16, written by Peter Selinger 2001-2019
</metadata>
<g transform="translate(0.000000,690.000000) scale(0.100000,-0.100000)"
fill="#000000" stroke="none">
<path d="M0 6000 c0 -79 0 -80 28 -86 41 -10 123 -62 157 -100 28 -31 60 -89
90 -159 7 -16 20 -47 29 -68 9 -21 16 -42 16 -48 0 -11 15 -48 49 -119 24 -51
83 -140 92 -140 5 0 9 -4 9 -9 0 -4 41 -51 91 -102 145 -149 193 -220 224
-330 13 -47 15 -114 14 -405 -3 -378 -5 -355 58 -539 118 -347 128 -396 137
-645 4 -113 -7 -237 -26 -284 -7 -17 -25 -34 -45 -43 -30 -12 -38 -12 -78 6
-25 11 -45 25 -45 30 0 6 -7 11 -15 11 -8 0 -15 7 -15 15 0 8 -4 15 -9 15 -4
0 -21 19 -37 43 -16 23 -32 44 -36 45 -5 2 -8 8 -8 14 0 21 -152 237 -185 262
-46 35 -96 34 -178 -4 -76 -35 -147 -39 -240 -15 -32 8 -62 15 -67 15 -6 0
-10 -73 -10 -179 l0 -180 58 -45 c61 -46 99 -90 121 -141 40 -90 68 -264 80
-498 5 -87 11 -161 15 -164 3 -4 17 0 31 7 18 10 29 10 36 3 7 -7 0 -17 -26
-33 l-36 -22 6 -57 c8 -78 50 -270 82 -381 92 -318 209 -559 366 -755 64 -80
217 -225 237 -225 5 0 10 -3 10 -7 0 -5 15 -17 33 -27 150 -90 225 -120 407
-163 109 -25 448 -25 580 1 214 42 346 85 495 161 96 50 121 64 154 90 43 33
131 128 131 141 0 7 4 14 9 16 13 5 69 129 93 206 30 98 30 294 0 374 -12 32
-27 68 -34 80 -62 110 -184 198 -295 213 l-48 7 42 -22 c46 -24 143 -111 143
-129 0 -6 4 -11 8 -11 11 0 40 -62 63 -135 81 -257 -97 -645 -353 -771 -168
-83 -343 -115 -628 -115 -249 0 -381 19 -535 79 -82 31 -175 81 -175 95 0 4
-5 7 -10 7 -19 0 -154 126 -214 200 -73 90 -199 314 -246 435 -53 138 -73 204
-110 355 -49 205 -73 356 -90 565 -12 157 -16 352 -8 361 4 3 19 -1 35 -9 26
-13 58 -28 135 -61 79 -34 234 -112 246 -123 7 -7 17 -13 21 -13 4 0 33 -24
63 -52 66 -61 106 -136 118 -216 17 -116 30 -210 45 -347 18 -159 39 -279 60
-346 8 -26 15 -52 15 -58 0 -22 58 -129 100 -185 43 -57 118 -119 185 -154 69
-35 112 -52 133 -52 11 0 37 -6 58 -13 59 -21 246 -42 364 -42 153 0 285 25
410 78 43 19 130 94 130 113 0 8 4 14 9 14 17 0 34 101 27 162 -16 159 -143
166 -356 20 -36 -25 -66 -49 -68 -54 -10 -24 -31 -3 -42 42 -10 40 -9 60 1
102 19 74 131 186 242 242 43 22 80 42 82 46 8 12 -102 33 -144 27 -22 -3 -60
-14 -83 -26 -41 -20 -118 -83 -118 -96 0 -4 -6 -13 -14 -20 -8 -8 -28 -49 -46
-92 -29 -69 -33 -88 -33 -178 0 -82 3 -108 21 -147 12 -26 26 -50 32 -53 41
-25 -52 -55 -171 -55 -70 0 -186 20 -234 40 -87 36 -125 55 -125 62 0 5 -7 8
-15 8 -21 0 -165 144 -165 165 0 8 -4 15 -10 15 -5 0 -10 6 -10 13 0 7 -9 30
-20 52 -11 22 -20 46 -20 55 0 9 -4 20 -9 25 -4 6 -18 44 -30 85 -13 41 -27
89 -32 106 -16 52 -49 246 -49 285 0 20 8 60 17 89 37 115 120 118 358 11 129
-58 160 -64 340 -65 197 -1 230 4 273 43 25 22 32 36 32 66 0 53 -35 95 -111
131 -61 29 -106 43 -251 80 -162 40 -260 80 -383 154 -27 16 -60 35 -72 41
-13 7 -23 16 -23 21 0 4 -5 8 -11 8 -12 0 -95 64 -117 90 -57 69 -73 192 -58
467 13 251 1 327 -99 673 -54 186 -73 294 -80 455 -22 519 -49 656 -163 825
-24 35 -50 69 -56 75 -7 5 -43 46 -82 90 -38 44 -72 82 -76 83 -5 2 -8 10 -8
17 0 7 -6 15 -13 18 -12 5 -92 159 -147 282 -42 96 -55 120 -91 170 -30 42
-92 104 -134 133 -25 18 -144 62 -167 62 -5 0 -8 -36 -8 -80z m276 -2742 c24
-17 44 -35 44 -40 0 -4 7 -8 15 -8 8 0 15 -4 15 -8 0 -5 19 -23 43 -40 23 -17
61 -48 84 -69 49 -45 72 -65 178 -157 44 -38 82 -73 83 -77 2 -5 10 -9 17 -9
7 0 15 -4 17 -10 2 -5 46 -41 98 -79 52 -39 100 -75 107 -81 7 -5 14 -10 17
-10 2 0 37 -19 78 -43 40 -23 92 -50 116 -60 71 -29 173 -65 217 -77 48 -13
98 -31 128 -46 16 -8 33 -14 38 -14 17 0 144 -65 194 -100 57 -39 105 -84 105
-98 0 -9 -77 -25 -120 -26 -67 -1 -212 34 -268 64 -9 5 -52 26 -95 47 -108 53
-131 65 -137 72 -3 3 -66 37 -140 74 -74 38 -142 73 -150 78 -68 40 -173 99
-176 99 -8 0 -69 44 -72 53 -2 4 -8 7 -13 7 -11 0 -72 42 -77 53 -2 4 -10 7
-18 7 -8 0 -14 4 -14 8 0 5 -19 22 -42 39 -80 57 -228 214 -228 241 0 6 -4 12
-9 14 -24 9 -106 228 -86 228 4 0 27 -14 51 -32z"/>
<path d="M0 4657 l0 -154 62 -30 c65 -31 190 -52 215 -36 7 5 16 28 21 51 32
139 -92 293 -255 317 l-43 7 0 -155z"/>
</g>
</svg>
